/* XPM */
static char *_0cb161afd274242c5366459b4a2cc92[] = {
/* columns rows colors chars-per-pixel */
"16 16 191 2 ",
"   c #00000A",
".  c #02010A",
"X  c #01030D",
"o  c #01030F",
"O  c #02050E",
"+  c #07050D",
"@  c #000311",
"#  c #000012",
"$  c #000411",
"%  c #000412",
"&  c #040712",
"*  c #000016",
"=  c #000017",
"-  c #000614",
";  c #0B0D16",
":  c #000019",
">  c #00001F",
",  c #010918",
"<  c #020C1A",
"1  c #070C1A",
"2  c #010E1F",
"3  c #090A1E",
"4  c #0E0B1D",
"5  c #05121D",
"6  c #07111F",
"7  c #09101C",
"8  c #08101F",
"9  c #10101A",
"0  c #171218",
"q  c #1D2010",
"w  c #2A381D",
"e  c #000428",
"r  c #000E28",
"t  c #001027",
"y  c #001226",
"u  c #011227",
"i  c #0A1222",
"p  c #0C1423",
"a  c #091027",
"s  c #0A1927",
"d  c #041329",
"f  c #09122D",
"g  c #03192F",
"h  c #0E1828",
"j  c #0C182B",
"k  c #101024",
"l  c #1E1E27",
"z  c #111F2D",
"x  c #111E2E",
"c  c #1A1E2C",
"v  c #120637",
"b  c #021233",
"n  c #071D31",
"m  c #001B3B",
"M  c #021E39",
"N  c #011E3B",
"B  c #001B3C",
"V  c #021B3F",
"C  c #101B3A",
"Z  c #231C23",
"A  c #261E20",
"S  c #201A2D",
"D  c #311929",
"F  c #341B2C",
"G  c #221F36",
"H  c #361F30",
"J  c #1E3326",
"K  c #02203B",
"L  c #02213F",
"P  c #03213F",
"I  c #04223C",
"U  c #092339",
"Y  c #172334",
"T  c #1E2030",
"R  c #152837",
"E  c #152937",
"W  c #15223A",
"Q  c #182538",
"!  c #122839",
"~  c #14283A",
"^  c #182839",
"/  c #1F3F3F",
"(  c #382B29",
")  c #293B2E",
"_  c #222B3A",
"`  c #362234",
"'  c #3D2234",
"]  c #31293B",
"[  c #2A3339",
"{  c #3D3134",
"}  c #353339",
"|  c #4E2031",
" . c #432A3A",
".. c #3B6313",
"X. c #3B5D31",
"o. c #405319",
"O. c #427015",
"+. c #496B24",
"@. c #40612A",
"#. c #040C40",
"$. c #041F42",
"%. c #002040",
"&. c #022342",
"*. c #042440",
"=. c #032445",
"-. c #032546",
";. c #062644",
":. c #042646",
">. c #082948",
",. c #082A4B",
"<. c #0C2A4B",
"1. c #152747",
"2. c #142F45",
"3. c #1D2E42",
"4. c #1E2A4F",
"5. c #1E3040",
"6. c #1F3041",
"7. c #13314D",
"8. c #14324C",
"9. c #0E275A",
"0. c #152E55",
"q. c #1C3857",
"w. c #20274D",
"e. c #203144",
"r. c #293645",
"t. c #283749",
"y. c #24394B",
"u. c #22384C",
"i. c #2C394B",
"p. c #353042",
"a. c #343A47",
"s. c #283455",
"d. c #2E3A65",
"f. c #283F64",
"g. c #413D45",
"h. c #354243",
"j. c #3A4046",
"k. c #3A434D",
"l. c #374F4A",
"z. c #374550",
"x. c #3F455A",
"c. c #38455E",
"v. c #3D4C58",
"b. c #234362",
"n. c #264560",
"m. c #254760",
"M. c #274961",
"N. c #294A61",
"B. c #2D4D6B",
"V. c #2E4F6E",
"C. c #325165",
"Z. c #33566E",
"A. c #345370",
"S. c #3C5F74",
"D. c #434348",
"F. c #43424A",
"G. c #44564D",
"H. c #4C4351",
"J. c #444A51",
"K. c #4B5054",
"L. c #4D565A",
"P. c #4E565A",
"I. c #426859",
"U. c #4C5860",
"Y. c #4C5A62",
"T. c #446B66",
"R. c #536066",
"E. c #44687D",
"W. c #44697E",
"Q. c #659C06",
"!. c #609508",
"~. c #648E1A",
"^. c #679917",
"/. c #6DAD14",
"(. c #618B33",
"). c #7EAE24",
"_. c #7EC70C",
"`. c #7FC022",
"'. c #7FC231",
"]. c #85CA0C",
"[. c #89D504",
"{. c #94DA04",
"}. c #95DF08",
"|. c #94DE09",
" X c #8BD019",
".X c #93D812",
"XX c #93DD1E",
"oX c #8BC52D",
"OX c #92DA21",
"+X c #557C91",
"@X c None",
/* pixels */
"@X@X@X@X@X@Xy.u.3.e.@X@X@X@X@X@X",
"@X@X@X@X  & ^ x h i i 1 @X@X@X@X",
"@X@XK.c e.4   X   O $ $ - 7 @X@X",
"@X@Xj.T W 3 # = : = $ , 5 s @X@X",
"@X; + O q Z w !.Q.+.x.P.P.^ ! @X",
"@X( { [ i.(.[.O...|.^.> , 2 z @X",
"a._ Y a 5 {.o.l v ) oXz.R.Y.Y.v.",
"9 0 A S @..Xh.l.R y.c.5.^ n t d ",
"g.D.k.w.X.].b f t t e r r g U 2.",
"Q j p k J |.G.d.n.1././ n.S.N.W.",
"@X} D.J.s.). XI.T.`.OXV.W.+XZ.@X",
"@XH.p.] H | ~._.XXoXB.B.m.m.8.@X",
"@X@XD F ' G #.B b.9.<.*.N N @X@X",
"@X@X .` C B I &.N N &.&.;.8.@X@X",
"@X@X@X@Xr.4.$.&.=.=.;.>.@X@X@X@X",
"@X@X@X@X@X@Xq.A.0.>.@X@X@X@X@X@X"
};
