/* XPM */
static char *_02b425005ce4c8590f55bc7b8bf0e5a[] = {
/* columns rows colors chars-per-pixel */
"32 32 256 2 ",
"   c #000004",
".  c #01010C",
"X  c #0A080E",
"o  c #010413",
"O  c #020916",
"+  c #0B0C15",
"@  c #00031B",
"#  c #020B1B",
"$  c #090F1C",
"%  c #0B111D",
"&  c #0E1E1B",
"*  c #0C1A16",
"=  c #131319",
"-  c #171815",
";  c #2C1E1E",
":  c #371F19",
">  c #162814",
",  c #37241D",
"<  c #000124",
"1  c #010D23",
"2  c #00082A",
"3  c #120C24",
"4  c #1A0C2C",
"5  c #031324",
"6  c #0B1423",
"7  c #0C1827",
"8  c #01152B",
"9  c #041A2E",
"0  c #0C1A2B",
"q  c #091529",
"w  c #161A25",
"e  c #181923",
"r  c #151C29",
"t  c #151227",
"y  c #010C34",
"u  c #000C3E",
"i  c #001331",
"p  c #031B32",
"a  c #0A1D32",
"s  c #011D3B",
"d  c #0C1E3C",
"f  c #00123E",
"g  c #131E32",
"h  c #1B1D33",
"j  c #241629",
"k  c #231E2B",
"l  c #2B1B2D",
"z  c #2A1223",
"x  c #371D2C",
"c  c #231E34",
"v  c #291E34",
"b  c #261F3F",
"n  c #341E30",
"m  c #182926",
"M  c #1F3A25",
"N  c #04223D",
"B  c #0B233B",
"V  c #082136",
"C  c #142333",
"Z  c #192334",
"A  c #152A3C",
"S  c #1B2C3D",
"D  c #1E223E",
"F  c #2B2225",
"G  c #24252D",
"H  c #262128",
"J  c #3E2C26",
"K  c #362B2C",
"L  c #3A2B2A",
"P  c #362423",
"I  c #32352F",
"U  c #2C2A31",
"Y  c #232C3B",
"T  c #2C2F3A",
"R  c #252A33",
"E  c #3B2030",
"W  c #352836",
"Q  c #2D333A",
"!  c #3C3B3F",
"~  c #343139",
"^  c #452A1E",
"/  c #471F2B",
"(  c #571B28",
")  c #46262A",
"_  c #53232F",
"`  c #57272E",
"'  c #49332B",
"]  c #462531",
"[  c #492130",
"{  c #582734",
"}  c #473938",
"|  c #65272E",
" . c #24411A",
".. c #375618",
"X. c #3F6712",
"o. c #21492E",
"O. c #374F21",
"+. c #254530",
"@. c #3F6B21",
"#. c #5D5B1C",
"$. c #426C11",
"%. c #40701E",
"&. c #676715",
"*. c #4B4E23",
"=. c #545928",
"-. c #424C3D",
";. c #5C4235",
":. c #475E3D",
">. c #5C6023",
",. c #527E2A",
"<. c #416639",
"1. c #4C7D39",
"2. c #676722",
"3. c #1E1E43",
"4. c #301949",
"5. c #341F56",
"6. c #29164A",
"7. c #042443",
"8. c #092443",
"9. c #0B2B4A",
"0. c #082848",
"q. c #162347",
"w. c #122C43",
"e. c #172B47",
"r. c #0F314F",
"t. c #1E3246",
"y. c #14324B",
"u. c #1E364C",
"i. c #1C384F",
"p. c #0D2857",
"a. c #162C54",
"s. c #1D2656",
"d. c #123251",
"f. c #1A3752",
"g. c #1A3A54",
"h. c #1D3F5B",
"j. c #173854",
"k. c #272742",
"l. c #312D40",
"z. c #233543",
"x. c #243A4E",
"c. c #2D3C4A",
"v. c #2D3944",
"b. c #343748",
"n. c #32295F",
"m. c #233954",
"M. c #2B3C55",
"N. c #323B55",
"B. c #253C67",
"V. c #3D3D76",
"C. c #393664",
"Z. c #583440",
"A. c #3D434B",
"S. c #36434F",
"D. c #315B42",
"F. c #264156",
"G. c #2A4154",
"H. c #24435A",
"J. c #2B4458",
"K. c #374454",
"L. c #3B4A5A",
"P. c #374656",
"I. c #2E5055",
"U. c #3C5C50",
"Y. c #3A6152",
"T. c #274865",
"R. c #2C4B66",
"E. c #294762",
"W. c #364864",
"Q. c #2F536F",
"!. c #31546B",
"~. c #3C536A",
"^. c #2E4675",
"/. c #3C5E74",
"(. c #3B587C",
"). c #3D6177",
"_. c #3F6379",
"`. c #42494E",
"'. c #40424C",
"]. c #455441",
"[. c #424955",
"{. c #424C5B",
"}. c #454B53",
"|. c #495354",
" X c #48555E",
".X c #585555",
"XX c #6E5F5B",
"oX c #48725B",
"OX c #6A7457",
"+X c #454E62",
"@X c #4A5767",
"#X c #555E65",
"$X c #435F7F",
"%X c #41626F",
"&X c #41667C",
"*X c #44697D",
"=X c #4E6274",
"-X c #5D6A7C",
";X c #566575",
":X c #60696D",
">X c #667377",
",X c #747B7D",
"<X c #548A04",
"1X c #538A1C",
"2X c #5E931C",
"3X c #649A0B",
"4X c #6FAB16",
"5X c #6EB014",
"6X c #78B412",
"7X c #608637",
"8X c #79BA28",
"9X c #7AB032",
"0X c #7EC108",
"qX c #6C8958",
"wX c #7BA94E",
"eX c #73807F",
"rX c #8CBD0D",
"tX c #84CB0A",
"yX c #85C40A",
"uX c #8DD80A",
"iX c #9EE903",
"pX c #96E408",
"aX c #A4F303",
"sX c #ADFD00",
"dX c #A6F907",
"fX c #B4FF00",
"gX c #BCFF01",
"hX c #89CD27",
"jX c #C0FF00",
"kX c #80A94A",
"lX c #86A75E",
"zX c #84C344",
"xX c #3D6186",
"cX c #4A6E81",
"vX c #496B8D",
"bX c #4D7284",
"nX c #4C738C",
"mX c #53768A",
"MX c #4C6C99",
"NX c #4E7090",
"BX c #567E95",
"VX c #597F94",
"CX c #757C86",
"ZX c #5D8498",
"AX c #7A8688",
"SX c #7E8580",
"DX c #6B939A",
"FX c #648BA2",
"GX c #759BAC",
"HX c #818988",
"JX c #89908B",
"KX c #8F9595",
"LX c #9CA39E",
"PX c #8B91A3",
"IX c #B2B2A7",
"UX c None",
/* pixels */
"UXUXUXUXUXUXUXUXUXUXUXUXUXUXG.).t.Y UXUXUXUXUXUXUXUXUXUXUXUXUXUX",
"UXUXUXUXUXUXUXUXUXUXX r R.C 7 G.7 6 x.g C nXUXUXUXUXUXUXUXUXUXUX",
"UXUXUXUXUXUXUXUX= X   o J.t.7 !.x.$ G.C O C % % UXUXUXUXUXUXUXUX",
"UXUXUXUXUXUXUX.     . . S Z o $ o . . . . . . . $ UXUXUXUXUXUXUX",
"UXUXUXUXUXT + 7 z.S 4 .   . . . . . o O o o o O o O r UXUXUXUXUX",
"UXUXUXUXAX|.k h J.S t . . o o o o o o . o O o o O O # r UXUXUXUX",
"UXUXUXUXA.|.U h G.G.k.@ o o o o O o o @ O # # # O # O O UXUXUXUX",
"UXUXUXR `.b.k t % 3 o . o o o o @ o O O @ . . o . O q 0 H.UXUXUX",
"UXUXU X .   . . . o + 3 3 @ o - > * < @ % T #Xb.,XHXt.A _.x.UXUX",
"UXUXo o + = + & = #.&.4 W <XpXsXsXsXtXlXCXeXJX|..X`.q # O 5 UXUX",
"UXJ , , : ^ - m T ].S.<.iXgXpX4X3X0XsXgX9Xo O O # # 5 5 5 5 0 UX",
"UX; ' F T }.b ~.J.m.U.dXsX$.< < < @  .iXsX..< 5 # # O @ # a z.UX",
"UX@X[.{. Xb.h 0 $ @ 3XgX$.< 1 & t k.< ..fXyX@ 5 c.S. X>X:XIXAXUX",
"UXT w o o . . O @ & aXdX*.=.>.2.I 6.5 v.wXqX>XKXeXLXAXP.S.S C UX",
"e . @ O 6 w F w m O.fXyXI =.].F.z.0 v.,XPX-Xc.Y 8 q 1 1 5 8 8 A ",
"H ; L ' ) P ' w t.7XfX9XB.e.R.x.B a C 8 1 5 5 8 9 8 9 p 9 p 9 V ",
") K k } v.L.@XN.(.,.jX2Xy 0 1 1 8 8 8 8 9 a 9 9 9 p 9 p p p 8 9 ",
"[.+X;X{.{.P.k.0 < ..gX3X< 5 a 3.8 8 9 9 y y p p 9 i i 9 9 B H.i.",
"UXZ h q @ @ # 1 2 M sXtX|.OXg 5.V u.V i @.%.7 i V y.F.bX!.w.ZXUX",
"UX# O 1 q G K } k +.uXsX:.W.%XcXmXbXC.9 iXgXoXr.*XFX/.&X&XN cXUX",
"UXW I ' ;.L W b.C M.wXsXrXxXB.T.E.q.^.zXsXhXxXy.R.BX_.&XnX8./.UX",
"UX} ~ T '.{.=X;Xx.@XN.rXjXyXO.I.DXoX8XgXiXY.NXH.h.ZX).).FXh.F.UX",
"UXUX@XmXK.N.b.W l j ( _ 5XfXgXsXdXsXsXuXD.a.bXR.i.FXZXQ.E.d.UXUX",
"UXUXW _ x z z / E c ] [ 4.o.1X5XhX8X1.ZXvXi.nXQ.7.g.N p p w.UXUX",
"UXUXUX/ l v v h _ { { [ 3.f u u MXMXp.T.h.N N N N N N N w.UXUXUX",
"UXUXUXUXl / x c v d i s p d N N 7.7.s p s N 7.7.N N N 7.UXUXUXUX",
"UXUXUXUXl.E _ | _ q.p s s s s 7.s 7.7.7.7.7.7.7.7.N 0.i.UXUXUXUX",
"UXUXUXUXUXZ.c p s s s s s 7.7.s N 7.7.7.7.7.7.7.7.0.i.UXUXUXUXUX",
"UXUXUXUXUXUXUX8.d S q.n.s 7.7.7.7.7.7.7.7.0.7.7.9.UXUXUXUXUXUXUX",
"UXUXUXUXUXUXUXUXXX.X8.s.s 7.f 7.7.7.7.7.7.7.9.d.UXUXUXUXUXUXUXUX",
"UXUXUXUXUXUXUXUXUXUX!.W.0.r.j.h.a.0.0.0.r.r.UXUXUXUXUXUXUXUXUXUX",
"UXUXUXUXUXUXUXUXUXUXUXUXUXUXGXFXV.p.UXUXUXUXUXUXUXUXUXUXUXUXUXUX"
};
