/* XPM */
static char *_bfe26dcb8b2414fc72a1721bb171e5a[] = {
/* columns rows colors chars-per-pixel */
"64 64 256 2 ",
"   c #000006",
".  c #00010C",
"X  c #080B0F",
"o  c #000313",
"O  c #020916",
"+  c #0A0A13",
"@  c #00041B",
"#  c #010B1B",
"$  c #0A0E1B",
"%  c #0A0518",
"&  c #04111E",
"*  c #0C121B",
"=  c #0C1416",
"-  c #14131C",
";  c #18181B",
":  c #140F14",
">  c #2A1B1A",
",  c #162619",
"<  c #162B1C",
"1  c #28241A",
"2  c #2B3617",
"3  c #000323",
"4  c #010D23",
"5  c #00032A",
"6  c #010D29",
"7  c #0B0E24",
"8  c #021223",
"9  c #0B1424",
"0  c #01152B",
"q  c #0B152B",
"w  c #03192E",
"e  c #0B1B2C",
"r  c #0B1925",
"t  c #121B24",
"y  c #141B2B",
"u  c #191927",
"i  c #010C37",
"p  c #011532",
"a  c #031B32",
"s  c #0B1B34",
"d  c #021D3B",
"f  c #021539",
"g  c #121A32",
"h  c #1B1C33",
"j  c #161938",
"k  c #11092C",
"l  c #291B28",
"z  c #371D2D",
"x  c #261C37",
"c  c #240B2F",
"v  c #182429",
"b  c #04223E",
"n  c #0B243C",
"m  c #0C2337",
"M  c #132233",
"N  c #13243B",
"B  c #1C2C3C",
"V  c #1B2634",
"C  c #1C323A",
"Z  c #132B28",
"A  c #25262B",
"S  c #372728",
"D  c #253526",
"F  c #2B2A33",
"G  c #242938",
"H  c #382935",
"J  c #25313A",
"K  c #333739",
"L  c #471E29",
"P  c #561D2D",
"I  c #49232B",
"U  c #58242D",
"Y  c #49352D",
"T  c #583829",
"R  c #472333",
"E  c #463735",
"W  c #5B3132",
"Q  c #67262C",
"!  c #78292C",
"~  c #67342F",
"^  c #6A1B30",
"/  c #284114",
"(  c #355716",
")  c #3B4C1E",
"_  c #274627",
"`  c #344A34",
"'  c #3E6437",
"]  c #386124",
"[  c #1A4023",
"{  c #485615",
"}  c #446916",
"|  c #4D7917",
" . c #555726",
".. c #5B4337",
"X. c #474524",
"o. c #68412B",
"O. c #674837",
"+. c #744E37",
"@. c #4C6D33",
"#. c #747228",
"$. c #031B42",
"%. c #150D41",
"&. c #371A4A",
"*. c #2C1E4B",
"=. c #032343",
"-. c #0D2D4C",
";. c #0A2744",
":. c #152A45",
">. c #15324C",
",. c #1C3549",
"<. c #133352",
"1. c #1B3955",
"2. c #152756",
"3. c #24354B",
"4. c #233B4D",
"5. c #2C3D4B",
"6. c #273844",
"7. c #353C45",
"8. c #273C54",
"9. c #2E2650",
"0. c #3C2D69",
"q. c #502F72",
"w. c #512463",
"e. c #384448",
"r. c #2B4453",
"t. c #26445C",
"y. c #2A435B",
"u. c #2C4A5B",
"i. c #234254",
"p. c #354354",
"a. c #394757",
"s. c #3E515A",
"d. c #2D4B64",
"f. c #284662",
"g. c #324B64",
"h. c #2E526C",
"j. c #34536B",
"k. c #365568",
"l. c #365B74",
"z. c #3B5D73",
"x. c #375878",
"c. c #2C5173",
"v. c #3D627B",
"b. c #3E6061",
"n. c #464949",
"m. c #454C59",
"M. c #485459",
"N. c #575958",
"B. c #594A4D",
"V. c #785642",
"C. c #685152",
"Z. c #4A6D54",
"A. c #716759",
"S. c #495664",
"D. c #535B66",
"F. c #42516D",
"G. c #456369",
"H. c #59656B",
"J. c #456779",
"K. c #5A6774",
"L. c #517976",
"P. c #656967",
"I. c #656A75",
"U. c #697479",
"Y. c #737979",
"T. c #64786B",
"R. c #882B2A",
"E. c #942E2C",
"W. c #892F30",
"Q. c #986C23",
"!. c #813143",
"~. c #906358",
"^. c #5E9517",
"/. c #558611",
"(. c #76B708",
"). c #6FAB0D",
"_. c #5A902C",
"`. c #638F29",
"'. c #68A11C",
"]. c #7FC806",
"[. c #639061",
"{. c #82B311",
"}. c #918E2B",
"|. c #A9A42D",
" X c #86C70B",
".X c #8CD705",
"XX c #93DB04",
"oX c #84C715",
"OX c #92D917",
"+X c #99E802",
"@X c #9EF101",
"#X c #A2ED02",
"$X c #A3F502",
"%X c #A5FB01",
"&X c #ABFE00",
"*X c #AAFB0A",
"=X c #B2FF00",
"-X c #BAFF04",
";X c #97E22B",
":X c #9ADA2A",
">X c #C0FF2A",
",X c #848874",
"<X c #A7AD7C",
"1X c #A4D950",
"2X c #75388B",
"3X c #563C87",
"4X c #3D6485",
"5X c #436A83",
"6X c #466984",
"7X c #4B748B",
"8X c #4B7288",
"9X c #55788A",
"0X c #4A7392",
"qX c #537A94",
"wX c #597E97",
"eX c #526887",
"rX c #687682",
"tX c #747A83",
"yX c #6F768C",
"uX c #6C5C92",
"iX c #803B90",
"pX c #5C8397",
"aX c #7B8389",
"sX c #648798",
"dX c #7C8692",
"fX c #60818F",
"gX c #5D86A5",
"hX c #668BA8",
"jX c #6A95A9",
"kX c #7399AA",
"lX c #6E98B6",
"zX c #7DA7B9",
"xX c #6FA5BB",
"cX c #7299C1",
"vX c #7BA9C3",
"bX c #828B8B",
"nX c #848D94",
"mX c #8B9298",
"MX c #969B99",
"NX c #909083",
"BX c #9BA49F",
"VX c #87ADB8",
"CX c #B4B5AB",
"ZX c #AAB1AD",
"AX c #959DA0",
"SX c #BED187",
"DX c #CCCABC",
"FX c #8AB5C8",
"GX c #83AEC2",
"HX c #BAB8C1",
"JX c #9DC6CF",
"KX c #D7D8C9",
"LX c #DBDDD2",
"PX c #C9CFC8",
"IX c #E9EAE5",
"UX c None",
/* pixels */
"UXUXUXUXUXUXUXUXUXUXUXUXUXUXUXUXUXUXUXUXUXUXUXUXUXUXUXUXUXUXUXUXUXUXUXUXUXUXUXUXUXUXUXUXUXUXUXUXUXUXUXUXUXUXUXUXUXUXUXUXUXUXUXUX",
"UXUXUXUXUXUXUXUXUXUXUXUXUXUXUXUXUXUXUXUXUXUXUXUXUX5.3.B + l.4Xt.l.B . g.0Xk.e.UXUXUXUXUXUXUXUXUXUXUXUXUXUXUXUXUXUXUXUXUXUXUXUXUX",
"UXUXUXUXUXUXUXUXUXUXUXUXUXUXUXUXUXUXUXUXUXUX: r.5Xl.f.d.  4.v.g.B t   v B . o + = 8.UXUXUXUXUXUXUXUXUXUXUXUXUXUXUXUXUXUXUXUXUXUX",
"UXUXUXUXUXUXUXUXUXUXUXUXUXUXUXUXUXUXUXA + .   t r.g.t -   X M & . # . N ,.,.c.N . u.l.qX8XUXUXUXUXUXUXUXUXUXUXUXUXUXUXUXUXUXUXUX",
"UXUXUXUXUXUXUXUXUXUXUXUXUXUXUXUXUXA X       . . m e O q . M 4Xl.8.4X. y 6Xv.u.,.. # C g.$ & A UXUXUXUXUXUXUXUXUXUXUXUXUXUXUXUXUX",
"UXUXUXUXUXUXUXUXUXUXUXUXUXUXUXF +     . . .   7 l.0Xd.5Xg & v.7X4.6.O O B V   o @ . . o . . . $ F UXUXUXUXUXUXUXUXUXUXUXUXUXUXUX",
"UXUXUXUXUXUXUXUXUXUXUXUXUXUX- . . . . . . . . . 4.z.r.t r . % t o   . .   . . o @ . . O . @ o . O t UXUXUXUXUXUXUXUXUXUXUXUXUXUX",
"UXUXUXUXUXUXUXUXUXUXUXUXUX+   .   .   .   . . . . + X     . . . . o . @ . O . o . . @ . o . o O . @ * UXUXUXUXUXUXUXUXUXUXUXUXUX",
"UXUXUXUXUXUXUXUXUXUXUX; .   o o 7 . o O % . . . . . . . @ . @ . . . @ . @ . @ . @ . @ . o o . o . O . O F UXUXUXUXUXUXUXUXUXUXUX",
"UXUXUXUXUXUXUXUXUXUXu v - . B 6.j.g.3.l.9.c   @ . . @ . . . . . @ . . @ . . . O . O @ O o o O O O O # O O J UXUXUXUXUXUXUXUXUXUX",
"UXUXUXUXUXUXUXUXUXnXH.Y.K c g r.3.7Xr.6.*.c   . @ . . @ . @ . @ @ . @ . . @ O . o . . O o o O O O O O O O o J UXUXUXUXUXUXUXUXUX",
"UXUXUXUXUXUXUXUXbXtXD.e.7.c - V t B X . X . . . @ . . @ . . . @ . @ O . @ O . @ O @ @ O @ O O O O O O O O O O G UXUXUXUXUXUXUXUX",
"UXUXUXUXUXUXUXUXn.N.+ A ;   % 3.3.k.8.y.g.&.% . . . @ . @ . @ . . @ . O @ @ . @ @ o O o O O O O O O # O O O O & UXUXUXUXUXUXUXUX",
"UXUXUXUXUXUXUXD.: G H.I.T.x c u.B y.6X5.r.&.% . @ . . @ . @ . @ . @ @ . O . @ O O o O O O @ O O @ O # # # # & O 9 UXUXUXUXUXUXUX",
"UXUXUXUXUXUXG 7.m.MXP.K n.F c 5.y 7 B . . . @ . @ . @ . @ . . @ O @ O @ O O @ O O O # # # # O # # & # # O O # # O t UXUXUXUXUXUX",
"UXUXUXUXUXP.; - n.F ; O X X o . . . . . @ O . @ . @ . @ . @ O O O O O O O @ O O O # # O # O O # o o . O e :.o ,.4Xf.G.UXUXUXUXUX",
"UXUXUXUXUXB.  . .   . . o . @ . O @ O @ . . @ @ $ % o O O . . @ . @ @ O O O # # & O o O # t r & M 7.M.H.6.h.e 6.xXgXz.UXUXUXUXUX",
"UXUXUXUXA . . O @ O . o . O . @ @ . . % % , . x &.. @ @ @ # , / / / < = @ 3 . o . V J V aXZXp.K PXDXLXZX. 4.m & r.u.8 C UXUXUXUX",
"UXUXUXUX+ . O . . . . X . . @ . . : : { #.`.. &.w.  O ( )..X$X&X&X&X%X+X(._.D.rXU.H.MXLXPXKXY.P.CXn.N.MX# 8 & & O & # r UXUXUXUX",
"UXUXUXA . o o o + + % : > @ , ] @ D |.}.}.Q.X @ w.{ .X=X=X&X&X%X%X&X%X&X=X=X>XSXPXaXM.,Xn.K M t J . O & & & 4 & 8 & & & J UXUXUX",
"UXUXUX+ + : ; T > I T o.o.. , _.c z { 1 ; > N :.).=X&X$X*X-X&X&X&X&X&X=X%X%X$X%X1XV . @ @ O @ # & 8 & & 4 8 8 8 8 8 8 4 e UXUXUX",
"UXUXUXS T T o.Y > o.T > ; % . y m B 3.u.g.z.G.;X=X%X&X=XXX'.@._ , / ( ^.#X&X%X%X&X/.3 * & 4 & 8 8 & 8 8 8 8 8 8 8 8 8 8 r UXUXUX",
"UXUXE ~ o.T 1 : : X O 6.% 4 g.J.a.J.9X5.F.9X X=X%X&X#X} 4 3 @ 3 @ @ % @ , (.=X%X&X=X( 3 8 & 8 8 4 8 8 8 8 8 8 8 8 0 8 8 & y UXUX",
"UXUX: . > ; & - V M.S.bX&.9.kXG.y y.p.4 :.^.=X%X&X+X< 3 & & & & 4 & # 8 3 3 (.=X%X&XXXr & 8 8 8 8 8 8 r 8 8 8 & 8 & & e B G.UXUX",
"UXUXV m.n.D.yXI.yXtXI.U.F x M $ # & . @ , #X&X&X&X/ 3 & 8 4 & 3 4 & h 3 & 4 t +X&X$X&X} 3 r r 8 @ & 8 # # 8 B 6.4 P.BXCXKXs.UXUX",
"UXHXI.tXP.F m.7.n.t $ $ @ O @ @ @ @ 4 @ /.=X$X=X/.@ 4 @ @ 3 # 8 4 8 2X4 & 8 3 | =X&X-X X@ # # o D.L.5.H.I.bXCXIXM.CXKXNXKXF.e UX",
"UXm.A D.e.. O o . O @ O @ # # @ # # @ & XX&X&X%X) 1 t D A ) #.|. .3 iXg & 8 @ t ].(./.@.6.a.I.nXZXbXZXLXLXZXs.tXa.P.r.# 7.N B UX",
"UX- . % O # O # # # @ # # # # 4 @ @ 3 / &X%X&X X}. .#.}.|.}.X.#. .@ &.*.& s s.M.H.yXK.yXAXBXLXZXU.M.Y.BXD.w 8 & 8 4 6 w 8 8 N UX",
"UX9 O # O @ # # @ @ # # O @ # @ t Z % | =X$X&X{.Y X.#.}.#.v :.e ;.p.r & @ m.U.ZXIXPXPXT.M.D.p.e e 8 & w 8 0 w w w w w w w 0 m UX",
"UX* O # @ # @ @ & u l u S T Y @ ` _.%.).=X$X&X} w e 3 D g 1.8X8.k.M N 6.6.U.5.aXM.p.dXm 4 8 8 8 0 w w 0 w 0 w w w w w w w 0 m UX",
"UX# @ O > t S S Y T S O.+.o.E # < _ 5 {.=X%X&XZ.6Xk.@ x.qXz.8.k.g.8 e 5.M N 0 # # 4 & 0 0 w w w w w w w w w w w w w w w w w w UX",
"UXS S Y Y T O.+.+.S S S u q # # m g.j.:X&X%X*XaX,.9X6 y.J.w r m w 0 6 4 6 8 0 w 0 w w 0 0 0 0 0 w w w w a w w a w a a a w w w UX",
"UX+.o.I S S o.> @ @ # q :.K.k y.zXrX3.OX*X%X$XK w :.8 4 3 8 6 4 0 8 0 0 w 0 w 0 0 0 w p w w p w w w w a a w a w w a a w a w a UX",
"UXu * k $ $ M 9.a.p.K.nXdXbX&.F.J.6.0 oX&X%X@X< 4 4 8 0 0 w 0 0 0 0 0 0 0 0 0 w w w w w 0 w a w w w w w a a a a w m a a a a m UX",
"UXu 5.rXa.U.H.D.aXyXaXm.p.p.q k # 4 3 ).=X%X&X[ 6 0 0 0 0 0 q q 0 0 w p w p w w w w w w w w a w a a a a a a a a a a m w 0 w m UX",
"UXbXm.yXI.nXD.9 B t q @ @ % 4 4 4 r 3 ^.=X%X=X( 5 6 4 4 0 0 3Xj 0 w w w w p w w p p a a a a a w a a a a a a 8 w w a w i.z.J.>.UX",
"UXD.6.u 9 p.h @ # 3 4 8 8 0 6 8 6 8 5 } =X$X=X| 5 J e.A.e.4 2Xj 0 w 6 6 0 p w p m Z d i p a a a a d w w w n t.h.v.b 8 d.vXxX8XUX",
"UXu @ 4 4 @ # 8 4 4 4 8 4 4 6 4 6 0 6 D &X%X&XoXP.<XSX,XM # 0.&.8 N 4.u.n s a i } *X].^._ p a w 0 w u.>.i.v.fXzXvXl.b m J.h.j.UX",
"UXJ 4 4 4 4 8 4 4 4 4 4 9 6 q F V 5 ' '  X&X&X#XZ.M.` M N ,.u.z.7XkXwXlXuX*.a p (.=X&X-X| f b m J.pXzXkXFXqXh.5Xz.f.-.m z.v.sXUX",
"UXUX7 # 4 4 9 4 4 q F E H E V.V...5 ' ' | =X$X-X/.5 n 8X9XwXFX9XpXGX1.5XF.*.6 D &X%X%X*XL.pXz.d 8XpXvXv.h.:.d.k.z.d.8 b fXFXUXUX",
"UXUXe 4 9 y E H ..O.C...E C...F V 8 6 3 T.*X$X%X*Xn.hXJXk.l.gXm :.-.8 0 =.5Xx.oX*X%X&X1XcX7Xl.w b >.v.1.>.k.J.sXFXjXf.a t.v.UXUX",
"UXUXH ....O.....V.O.H v t @ s 5.@ 3.a.U.eX1X&X%X=XXXS.2.a a p y.u.,.J.4.-.cX1X*X*X*X%XZ.c.0 b a 4.L.jXFXzXvXv.l.4Xf.1.a i.pXUXUX",
"UXUXUXV.Y F h u E 7 6 q 3.S.rXaXB yXH.mXg.D..X&X$X&XXX( x $.f gXFXjXgXx.m :X&X%X%X=X'.c.G.6XkXb k.5XvXhXl.1.1.z.l.pX=.w u.UXUXUX",
"UXUXUXq s V q 6.p.K.tXrXmXdXdXY.s :.5.d u k _ $X&X%X&X=X:X#.[ G.sXL.` _.+X&X%X$X=XoXp J.FXhX0X<.b b k.z.>.i.v.7XzXFX7X-.n UXUXUX",
"UXUXUXD.s.AXI.nXI.p.rXS.S.j s p p q 6 l ^ E.^ Q.#X=X&X$X&X&X%X@X+X@X&X=X&X%X&X=X;X5Xd t.5X-.p ;.b G.pXzXzXFXhXv.5Xl.f.-.4.UXUXUX",
"UXUXUXUXm.eXm.dX5.6 k 6 6 L l L I ! x U W.I ^ P V ).&X=X&X%X%X&X&X%X%X%X&X&X@X_.$.$.a i.z.J.fXqXw 8XpXFX4Xh.<.>.b a a n UXUXUXUX",
"UXUXUXUXm.7 k H y l P L g Q ! ! P U g a h s p p j $._ '.XX$X%X&X&X$X%X@X.X`.L.x.d.wX:.;.kXGXqX5Xb =.<.l.a a a b b b b i.UXUXUXUX",
"UXUXUXUXUXQ P R.L Q z L s l z p g s s j R ! Q E.!.0.0 f b C ` ] _.[.' Z.t.$.lXJXjXjXf.b v.6X$.d b b b a b b n b b b :.UXUXUXUXUX",
"UXUXUXUXUX!.! I L z u q p p p h R R.U E.E.W.! ! H 2.a d d d f i 0XvXhXgXpXw l.wXx.d =.b w b b =.b b =.n b b b b b b u.UXUXUXUXUX",
"UXUXUXUXUXUXJ 8 0 z u z z ^ x R R.U U Q H x d p f a d d d d d a c.hXhX<.<.=.f d d b b b =.b b =.b b b =.b b b n b 4.UXUXUXUXUXUX",
"UXUXUXUXUXUXUXH q Q ! ! P Q h p x d a p d f d d s d d d d d d d f =.-.d d $.=.b =.=.b b =.b =.=.=.=.b =.n =.b b -.UXUXUXUXUXUXUX",
"UXUXUXUXUXUXUXUXj l z h a g h s s x *.d d a a d d d a d b $.b d b $.d =.b =.b b b b =.=.b =.=.=.b n =.b b b b ;.UXUXUXUXUXUXUXUX",
"UXUXUXUXUXUXUXUX>.k x s h U W.! E.W.0.s d a d d d d d d =.d d =.=.b b b b =.=.=.=.=.b =.=.=.=.=.=.;.;.b b b ;.t.UXUXUXUXUXUXUXUX",
"UXUXUXUXUXUXUXUXUXB.! ^ E.! ! U R x $.d d d d d d d d d =.d b b d =.=.$.b $.b =.b =.=.=.=.=.=.=.;.=.;.=.;.=.u.UXUXUXUXUXUXUXUXUX",
"UXUXUXUXUXUXUXUXUXUXC.z R h d f f d a d d d $.d d d b =.d $.=.$.=.$.b =.=.=.=.=.=.=.=.=.=.=.=.-.=.b =.b ;.d.UXUXUXUXUXUXUXUXUXUX",
"UXUXUXUXUXUXUXUXUXUXUX<.d f d d d d d d d d d $.$.b b d =.b =.b b =.=.b b =.=.=.=.=.=.=.=.=.=.=.;.=.=.-.i.UXUXUXUXUXUXUXUXUXUXUX",
"UXUXUXUXUXUXUXUXUXUXUXUXUX;.p d d f d f d d q.:.b d d b =.$.=.=.=.=.=.=.=.=.=.-.=.=.=.=.=.=.=.=.=.=.-.UXUXUXUXUXUXUXUXUXUXUXUXUX",
"UXUXUXUXUXUXUXUXUXUXUXUXUXUX>.s p d ;.7.B $.2X=.$.=.$.=.=.=.=.=.=.=.=.=.=.=.=.$.=.=.-.=.=.-.=.$.=.1.UXUXUXUXUXUXUXUXUXUXUXUXUXUX",
"UXUXUXUXUXUXUXUXUXUXUXUXUXUXUXm.C.C.~.~.:.d q.0.b b $.=.=.=.=.=.=.=.=.=.$.-.-.=.=.=.-.=.=.=.=.<.d.UXUXUXUXUXUXUXUXUXUXUXUXUXUXUX",
"UXUXUXUXUXUXUXUXUXUXUXUXUXUXUXUXUX,XN.,.d p $.=.=.=.=.=.=.=.=.=.=.=.=.=.-.=.$.-.-.=.=.=.=.<.f.UXUXUXUXUXUXUXUXUXUXUXUXUXUXUXUXUX",
"UXUXUXUXUXUXUXUXUXUXUXUXUXUXUXUXUXUXUX1.>.j.g.9.d =.$.=.d $.$.b =.=.=.-.=.$.-.$.=.=.-.-.f.UXUXUXUXUXUXUXUXUXUXUXUXUXUXUXUXUXUXUX",
"UXUXUXUXUXUXUXUXUXUXUXUXUXUXUXUXUXUXUXUXUXUXeXq.=.=.;.-.t.>.t.l.0.2.=.=.=.-.-.-.<.<.UXUXUXUXUXUXUXUXUXUXUXUXUXUXUXUXUXUXUXUXUXUX",
"UXUXUXUXUXUXUXUXUXUXUXUXUXUXUXUXUXUXUXUXUXUXUXUXUXu.sXpXzXzXqXlX3X2.<.-.2.1.f.UXUXUXUXUXUXUXUXUXUXUXUXUXUXUXUXUXUXUXUXUXUXUXUXUX",
"UXUXUXUXUXUXUXUXUXUXUXUXUXUXUXUXUXUXUXUXUXUXUXUXUXUXUXUXUXUXUXUXUXUXUXUXUXUXUXUXUXUXUXUXUXUXUXUXUXUXUXUXUXUXUXUXUXUXUXUXUXUXUXUX"
};
